# xmcd
#
# Track frame offsets: 
#        150
#        21062
#        33897
#        54265
#        71492
#        77510
#        99232
#        118582
#        122082
#        138087
#        145825
#        154877
#        174957
#        192784
#
# Disc length: 2765 seconds
#
# Revision: 2
# Processed by: cddbd v1.5.1PL0 Copyright (c) Steve Scherf et al.
# Submitted via: ExactAudioCopy v0.95a5
#
DISCID=a70acb0e
DTITLE=Keith Dunn - Alone With The Blues
DYEAR=1998
DGENRE=Blues
TTITLE0=Strange Things Are Happening
TTITLE1=Need To Make a Dollar
TTITLE2=Geronimo
TTITLE3=Playing the Blues
TTITLE4=Deetone Dance
TTITLE5=Bring It On Home
TTITLE6=Trouble Is Going On
TTITLE7=California Dream
TTITLE8=I Used To Have a Home
TTITLE9=Kool Struttin'
TTITLE10=A Feeling Called the Blues
TTITLE11=Face the Facts
TTITLE12=Deep In My Heart For You
TTITLE13=Myers, Below, Jacobs and Myers
EXTD=Produced by Keith Dunn\nRecorded at Sound Bound Studio, Amsterdam
EXTD=, March 11, 1998\nEngineered by Zlaya
EXTT0=
EXTT1=
EXTT2=
EXTT3=
EXTT4=
EXTT5=
EXTT6=
EXTT7=
EXTT8=
EXTT9=
EXTT10=
EXTT11=
EXTT12=
EXTT13=
PLAYORDER=
